<svg xmlns="http://www.w3.org/2000/svg" width="900" height="738" viewBox="0 0 900 738">
<rect width="100%" height="100%" fill="white"/>
<text x="20" y="30" font-family="sans-serif" font-size="20">1.5b stored evaluation accuracy</text>
<text x="20" y="75" font-family="sans-serif" font-size="13">base-internal</text>
<rect x="280" y="58" width="350.000" height="22" fill="#2563eb"/>
<text x="850" y="75" text-anchor="end" font-family="sans-serif" font-size="13">62.50%</text>
<text x="20" y="129" font-family="sans-serif" font-size="13">base-bfcl</text>
<rect x="280" y="112" width="495.250" height="22" fill="#2563eb"/>
<text x="850" y="129" text-anchor="end" font-family="sans-serif" font-size="13">88.44%</text>
<text x="20" y="183" font-family="sans-serif" font-size="13">sft-seed-0-internal</text>
<rect x="280" y="166" width="536.667" height="22" fill="#2563eb"/>
<text x="850" y="183" text-anchor="end" font-family="sans-serif" font-size="13">95.83%</text>
<text x="20" y="237" font-family="sans-serif" font-size="13">sft-seed-1-internal</text>
<rect x="280" y="220" width="527.333" height="22" fill="#2563eb"/>
<text x="850" y="237" text-anchor="end" font-family="sans-serif" font-size="13">94.17%</text>
<text x="20" y="291" font-family="sans-serif" font-size="13">sft-seed-2-internal</text>
<rect x="280" y="274" width="527.333" height="22" fill="#2563eb"/>
<text x="850" y="291" text-anchor="end" font-family="sans-serif" font-size="13">94.17%</text>
<text x="20" y="345" font-family="sans-serif" font-size="13">sft-seed-0-bfcl</text>
<rect x="280" y="328" width="524.125" height="22" fill="#2563eb"/>
<text x="850" y="345" text-anchor="end" font-family="sans-serif" font-size="13">93.59%</text>
<text x="20" y="399" font-family="sans-serif" font-size="13">sft-seed-1-bfcl</text>
<rect x="280" y="382" width="511.000" height="22" fill="#2563eb"/>
<text x="850" y="399" text-anchor="end" font-family="sans-serif" font-size="13">91.25%</text>
<text x="20" y="453" font-family="sans-serif" font-size="13">sft-seed-2-bfcl</text>
<rect x="280" y="436" width="511.875" height="22" fill="#2563eb"/>
<text x="850" y="453" text-anchor="end" font-family="sans-serif" font-size="13">91.41%</text>
<text x="20" y="507" font-family="sans-serif" font-size="13">repair-internal</text>
<rect x="280" y="490" width="536.667" height="22" fill="#2563eb"/>
<text x="850" y="507" text-anchor="end" font-family="sans-serif" font-size="13">95.83%</text>
<text x="20" y="561" font-family="sans-serif" font-size="13">repair-stress</text>
<rect x="280" y="544" width="350.000" height="22" fill="#2563eb"/>
<text x="850" y="561" text-anchor="end" font-family="sans-serif" font-size="13">62.50%</text>
<text x="20" y="615" font-family="sans-serif" font-size="13">repair-bfcl</text>
<rect x="280" y="598" width="472.500" height="22" fill="#2563eb"/>
<text x="850" y="615" text-anchor="end" font-family="sans-serif" font-size="13">84.38%</text>
<text x="20" y="669" font-family="sans-serif" font-size="13">dpo-internal</text>
<rect x="280" y="652" width="238.000" height="22" fill="#2563eb"/>
<text x="850" y="669" text-anchor="end" font-family="sans-serif" font-size="13">42.50%</text>
</svg>
